#define im_width 12
#define im_height 12
static char im_bits[] = {
0xdf,0x0f,0xdf,0x0f,0xdf,0x0f,0xdf,0x0f,0xdf,0x0f,0x00,0x00,0xdf,0x0f,0xdf,
0x0f,0xdf,0x0f,0xdf,0x0f,0xdf,0x0f,0xdf,0x0f
};
