#define im_width 14
#define im_height 14
static char im_bits[] = {
0xbf,0x3b,0xbf,0x3b,0xbf,0x3b,0xbf,0x3b,0xbf,0x3b,0xbf,0x3b,0xbf,0x3b,0xbf,
0x3b,0xbf,0x3b,0xbf,0x3b,0xbf,0x3b,0xbf,0x3b,0xbf,0x3b,0xbf,0x3b
};
