#define im_width 14
#define im_height 14
static char im_bits[] = {
0xff,0x3f,0xff,0x3f,0xff,0x3f,0xff,0x3f,0xff,0x3f,0xff,0x3f,0x00,0x00,0xbf,
0x3f,0xbf,0x3f,0xbf,0x3f,0xbf,0x3f,0xbf,0x3f,0xbf,0x3f,0xbf,0x3f
};
